STARTFONT 2.1
COMMENT
COMMENT Converted from OpenType font "truongsa_regular.ttf" by "otf2bdf 3.0".
COMMENT
FONT -FreeType-VPS Truong Sa Light Hoa-Medium-R-Normal--22-160-100-100-P-112-ISO10646-1
SIZE 16 100 100
FONTBOUNDINGBOX 20 30 0 -5
STARTPROPERTIES 19
FOUNDRY "FreeType"
FAMILY_NAME "VPS Truong Sa Light Hoa"
WEIGHT_NAME "Medium"
SLANT "R"
SETWIDTH_NAME "Normal"
ADD_STYLE_NAME ""
PIXEL_SIZE 22
POINT_SIZE 160
RESOLUTION_X 100
RESOLUTION_Y 100
SPACING "P"
AVERAGE_WIDTH 112
CHARSET_REGISTRY "ISO10646"
CHARSET_ENCODING "1"
FONT_ASCENT 21
FONT_DESCENT 5
COPYRIGHT "VPS Font"
_OTF_FONTFILE "truongsa_regular.ttf"
_OTF_PSNAME "VPS Truong Sa Light Hoa"
ENDPROPERTIES
CHARS 270
STARTCHAR 0002
ENCODING 2
SWIDTH 630 0
DWIDTH 14 0
BBX 15 19 0 -3
BITMAP
0300
0380
0780
04C0
0CC0
0860
0860
1860
1030
3FF0
3038
2018
6018
6018
601C
F03E
0000
0300
0700
ENDCHAR
STARTCHAR 0003
ENCODING 3
SWIDTH 630 0
DWIDTH 14 0
BBX 15 24 0 -3
BITMAP
0380
0680
0440
0000
0000
0300
0380
0780
04C0
0CC0
0860
0860
1860
1030
3FF0
3038
2018
6018
6018
601C
F03E
0000
0300
0700
ENDCHAR
STARTCHAR 0004
ENCODING 4
SWIDTH 630 0
DWIDTH 14 0
BBX 15 23 0 -3
BITMAP
0840
0780
0000
0000
0300
0380
0780
04C0
0CC0
0860
0860
1860
1030
3FF0
3038
2018
6018
6018
601C
F03E
0000
0300
0700
ENDCHAR
STARTCHAR 0005
ENCODING 5
SWIDTH 585 0
DWIDTH 13 0
BBX 12 19 1 -3
BITMAP
FFF0
6070
6010
6000
6000
6000
6040
7FC0
6040
6000
6000
6000
6000
6010
6070
FFF0
0000
0600
0E00
ENDCHAR
STARTCHAR 0006
ENCODING 6
SWIDTH 585 0
DWIDTH 13 0
BBX 12 25 1 -4
BITMAP
0600
0D00
0880
0000
0000
FFF0
6070
6010
6000
6000
6000
6040
7FC0
6040
6000
6000
6000
6000
6010
6070
FFF0
0000
0200
0600
0200
ENDCHAR
STARTCHAR 0015
ENCODING 21
SWIDTH 675 0
DWIDTH 15 0
BBX 16 24 1 -4
BITMAP
000E
0001
0002
0004
F03C
6018
6018
6018
6018
4008
4008
C008
C008
C008
C008
6018
6018
6010
3030
1FE0
0000
0000
0300
0300
ENDCHAR
STARTCHAR 0019
ENCODING 25
SWIDTH 630 0
DWIDTH 14 0
BBX 15 20 0 -4
BITMAP
F01E
600C
7018
3010
1830
1C20
0C40
06C0
0380
0300
0300
0300
0300
0300
0300
07C0
0000
0100
0380
0100
ENDCHAR
STARTCHAR 001C
ENCODING 28
SWIDTH 630 0
DWIDTH 14 0
BBX 15 24 0 0
BITMAP
0740
0FC0
0000
0380
0680
0440
0000
0000
0300
0380
0780
04C0
0CC0
0860
0860
1860
1030
3FF0
3038
2018
6018
6018
601C
F03E
ENDCHAR
STARTCHAR 001D
ENCODING 29
SWIDTH 675 0
DWIDTH 15 0
BBX 16 24 1 0
BITMAP
07C0
09C0
0000
0000
000E
0001
0002
0004
F03C
6018
6018
6018
6018
4008
4008
C008
C008
C008
C008
6018
6018
6010
3030
1FE0
ENDCHAR
STARTCHAR 0020
ENCODING 32
SWIDTH 270 0
DWIDTH 6 0
BBX 0 0 0 0
BITMAP
ENDCHAR
STARTCHAR 0021
ENCODING 33
SWIDTH 270 0
DWIDTH 6 0
BBX 2 16 2 0
BITMAP
C0
C0
C0
C0
C0
C0
C0
C0
C0
80
80
00
00
00
C0
C0
ENDCHAR
STARTCHAR 0022
ENCODING 34
SWIDTH 315 0
DWIDTH 7 0
BBX 5 7 1 9
BITMAP
C8
C8
C8
C8
88
88
08
ENDCHAR
STARTCHAR 0023
ENCODING 35
SWIDTH 765 0
DWIDTH 17 0
BBX 15 16 1 0
BITMAP
0188
0108
0118
0310
0230
3FFE
7FFE
0460
0440
0C40
FFF8
1880
1880
1180
3100
2100
ENDCHAR
STARTCHAR 0024
ENCODING 36
SWIDTH 540 0
DWIDTH 12 0
BBX 10 20 1 -3
BITMAP
0400
0400
3F00
6580
4480
4480
4400
6400
3C00
1F00
0780
05C0
04C0
0440
C440
C4C0
6580
3F00
0400
0400
ENDCHAR
STARTCHAR 0025
ENCODING 37
SWIDTH 855 0
DWIDTH 19 0
BBX 16 17 2 0
BITMAP
0008
7E18
C7F0
8210
8220
8240
C640
4480
3880
0108
0136
0243
0441
04C1
0843
0863
103E
ENDCHAR
STARTCHAR 0026
ENCODING 38
SWIDTH 765 0
DWIDTH 17 0
BBX 15 16 1 0
BITMAP
1F80
3080
20C0
20C0
3180
3300
1E00
1C3E
6C18
C618
C310
83A0
81E0
C0E0
E1F0
7F3E
ENDCHAR
STARTCHAR 0027
ENCODING 39
SWIDTH 135 0
DWIDTH 3 0
BBX 2 6 1 9
BITMAP
C0
C0
C0
C0
80
80
ENDCHAR
STARTCHAR 0028
ENCODING 40
SWIDTH 315 0
DWIDTH 7 0
BBX 4 20 2 -4
BITMAP
30
20
60
40
40
C0
C0
C0
80
80
80
C0
C0
C0
40
40
60
20
20
10
ENDCHAR
STARTCHAR 0029
ENCODING 41
SWIDTH 315 0
DWIDTH 7 0
BBX 3 19 2 -4
BITMAP
80
C0
40
40
60
60
20
20
20
20
20
20
20
60
60
40
40
C0
80
ENDCHAR
STARTCHAR 002A
ENCODING 42
SWIDTH 450 0
DWIDTH 10 0
BBX 9 9 1 7
BITMAP
1800
4900
EB80
3C00
1C00
EB00
4900
1800
0800
ENDCHAR
STARTCHAR 002B
ENCODING 43
SWIDTH 810 0
DWIDTH 18 0
BBX 13 13 3 0
BITMAP
0200
0200
0200
0200
0200
0200
FFF8
0200
0200
0200
0200
0200
0200
ENDCHAR
STARTCHAR 002C
ENCODING 44
SWIDTH 270 0
DWIDTH 6 0
BBX 2 6 2 -4
BITMAP
C0
C0
40
40
40
80
ENDCHAR
STARTCHAR 002D
ENCODING 45
SWIDTH 315 0
DWIDTH 7 0
BBX 5 2 1 4
BITMAP
F8
F8
ENDCHAR
STARTCHAR 002E
ENCODING 46
SWIDTH 270 0
DWIDTH 6 0
BBX 2 2 2 0
BITMAP
C0
C0
ENDCHAR
STARTCHAR 002F
ENCODING 47
SWIDTH 225 0
DWIDTH 5 0
BBX 6 18 0 -2
BITMAP
04
08
08
08
08
10
10
10
20
20
20
40
40
40
80
80
80
80
ENDCHAR
STARTCHAR 0030
ENCODING 48
SWIDTH 540 0
DWIDTH 12 0
BBX 11 16 1 0
BITMAP
3F00
6180
40C0
C0C0
C0C0
C0C0
C0C0
C0E0
C0E0
C0C0
C0C0
C0C0
C0C0
4080
6180
3F00
ENDCHAR
STARTCHAR 0031
ENCODING 49
SWIDTH 540 0
DWIDTH 12 0
BBX 8 16 2 0
BITMAP
08
F8
18
18
18
18
18
18
18
18
18
18
18
18
1C
FF
ENDCHAR
STARTCHAR 0032
ENCODING 50
SWIDTH 540 0
DWIDTH 12 0
BBX 11 16 0 0
BITMAP
1F80
30C0
6060
6060
6060
20E0
00C0
0180
0300
0600
0C00
1800
3000
6060
7FE0
FFC0
ENDCHAR
STARTCHAR 0033
ENCODING 51
SWIDTH 540 0
DWIDTH 12 0
BBX 11 16 0 0
BITMAP
1F80
20C0
60C0
60C0
00C0
00C0
0380
0F00
01C0
00E0
0060
0060
C060
C0E0
60C0
3F80
ENDCHAR
STARTCHAR 0034
ENCODING 52
SWIDTH 540 0
DWIDTH 12 0
BBX 12 16 0 0
BITMAP
0180
0380
0780
0D80
1980
1180
3180
6180
6180
4180
FFF0
FFF0
0180
0180
0180
03E0
ENDCHAR
STARTCHAR 0035
ENCODING 53
SWIDTH 540 0
DWIDTH 12 0
BBX 11 16 0 0
BITMAP
3FC0
3F00
2000
2000
2000
2000
2F80
30C0
0060
0060
0060
0060
4060
E060
60C0
3F80
ENDCHAR
STARTCHAR 0036
ENCODING 54
SWIDTH 540 0
DWIDTH 12 0
BBX 11 16 1 0
BITMAP
0780
1C00
3000
6000
6000
C000
CF00
F380
C0C0
C0C0
C0E0
C060
C0C0
40C0
6180
3F00
ENDCHAR
STARTCHAR 0037
ENCODING 55
SWIDTH 540 0
DWIDTH 12 0
BBX 10 16 1 0
BITMAP
FFC0
FFC0
C0C0
0080
0180
0100
0300
0300
0200
0600
0600
0C00
0C00
0C00
1800
1800
ENDCHAR
STARTCHAR 0038
ENCODING 56
SWIDTH 540 0
DWIDTH 12 0
BBX 11 16 1 0
BITMAP
3F00
6080
C0C0
C0C0
C0C0
6180
7B00
1F00
3780
61C0
C0C0
8060
8060
8040
C080
7F00
ENDCHAR
STARTCHAR 0039
ENCODING 57
SWIDTH 540 0
DWIDTH 12 0
BBX 10 16 1 0
BITMAP
3F00
6180
C0C0
C0C0
C0C0
C0C0
C0C0
C0C0
73C0
3CC0
00C0
0180
0180
0300
0E00
7800
ENDCHAR
STARTCHAR 003A
ENCODING 58
SWIDTH 270 0
DWIDTH 6 0
BBX 2 10 2 0
BITMAP
C0
C0
00
00
00
00
00
00
C0
C0
ENDCHAR
STARTCHAR 003B
ENCODING 59
SWIDTH 270 0
DWIDTH 6 0
BBX 2 14 2 -4
BITMAP
C0
C0
80
00
00
00
00
00
C0
C0
40
40
40
80
ENDCHAR
STARTCHAR 003C
ENCODING 60
SWIDTH 810 0
DWIDTH 18 0
BBX 13 11 3 1
BITMAP
0038
00E0
0380
1C00
7000
C000
7800
0E00
0380
0070
0018
ENDCHAR
STARTCHAR 003D
ENCODING 61
SWIDTH 810 0
DWIDTH 18 0
BBX 13 5 3 4
BITMAP
FFF8
0000
0000
0000
FFF8
ENDCHAR
STARTCHAR 003E
ENCODING 62
SWIDTH 810 0
DWIDTH 18 0
BBX 13 11 3 1
BITMAP
C000
7800
0E00
0380
0070
0038
00E0
0780
1C00
7000
C000
ENDCHAR
STARTCHAR 003F
ENCODING 63
SWIDTH 405 0
DWIDTH 9 0
BBX 8 16 1 0
BITMAP
7C
C2
C3
83
03
03
06
0E
38
20
20
20
00
00
30
30
ENDCHAR
STARTCHAR 0040
ENCODING 64
SWIDTH 945 0
DWIDTH 21 0
BBX 18 19 2 -3
BITMAP
00F800
070600
180100
300080
600040
40E440
C11C40
820C40
860840
861840
841840
841880
843080
865100
418E00
600000
300080
080300
07FC00
ENDCHAR
STARTCHAR 0041
ENCODING 65
SWIDTH 630 0
DWIDTH 14 0
BBX 15 16 0 0
BITMAP
0300
0380
0780
04C0
0CC0
0860
0860
1860
1030
3FF0
3038
2018
6018
6018
601C
F03E
ENDCHAR
STARTCHAR 0042
ENCODING 66
SWIDTH 630 0
DWIDTH 14 0
BBX 13 16 1 0
BITMAP
FFC0
60E0
6030
6030
6030
6060
61C0
6FC0
7870
6038
6018
6018
6018
6038
60F0
FFE0
ENDCHAR
STARTCHAR 0043
ENCODING 67
SWIDTH 675 0
DWIDTH 15 0
BBX 14 16 1 0
BITMAP
0FF0
1838
3018
6008
E000
C000
C000
C000
C000
C000
C000
E000
6004
700C
3838
1FF0
ENDCHAR
STARTCHAR 0044
ENCODING 68
SWIDTH 720 0
DWIDTH 16 0
BBX 14 16 1 0
BITMAP
FF80
60E0
6030
6018
601C
600C
600C
600C
600C
600C
600C
601C
6018
6030
60E0
FF80
ENDCHAR
STARTCHAR 0045
ENCODING 69
SWIDTH 585 0
DWIDTH 13 0
BBX 12 16 1 0
BITMAP
FFF0
6070
6010
6000
6000
6000
6040
7FC0
6040
6000
6000
6000
6000
6010
6070
FFF0
ENDCHAR
STARTCHAR 0046
ENCODING 70
SWIDTH 540 0
DWIDTH 12 0
BBX 11 16 1 0
BITMAP
FFE0
6060
6000
6000
6000
6000
6000
7FC0
60C0
6000
6000
6000
6000
6000
6000
F000
ENDCHAR
STARTCHAR 0047
ENCODING 71
SWIDTH 765 0
DWIDTH 17 0
BBX 15 16 1 0
BITMAP
0FF8
1C1C
300C
6004
6000
E000
C000
C000
C07E
C006
C006
E006
6006
7006
380C
0FF8
ENDCHAR
STARTCHAR 0048
ENCODING 72
SWIDTH 765 0
DWIDTH 17 0
BBX 15 16 1 0
BITMAP
F01E
600C
600C
600C
600C
600C
600C
7FFC
600C
600C
600C
600C
600C
600C
600C
F01E
ENDCHAR
STARTCHAR 0049
ENCODING 73
SWIDTH 270 0
DWIDTH 6 0
BBX 4 16 1 0
BITMAP
F0
60
60
60
60
60
60
60
60
60
60
60
60
60
60
F0
ENDCHAR
STARTCHAR 004A
ENCODING 74
SWIDTH 450 0
DWIDTH 10 0
BBX 9 16 0 0
BITMAP
0780
0300
0300
0300
0300
0300
0300
0300
0300
0300
6300
E300
C300
8300
C300
7E00
ENDCHAR
STARTCHAR 004B
ENCODING 75
SWIDTH 585 0
DWIDTH 13 0
BBX 13 16 1 0
BITMAP
F0F8
6060
6040
60C0
6180
6300
6600
6F00
7B80
71C0
60C0
6060
6060
6030
6030
F078
ENDCHAR
STARTCHAR 004C
ENCODING 76
SWIDTH 540 0
DWIDTH 12 0
BBX 12 16 1 0
BITMAP
F000
6000
6000
6000
6000
6000
6000
6000
6000
6000
6000
6000
6000
6010
6070
FFF0
ENDCHAR
STARTCHAR 004D
ENCODING 77
SWIDTH 810 0
DWIDTH 18 0
BBX 18 16 0 0
BITMAP
7803C0
380700
380700
3C0700
2C0F00
260B00
261B00
231300
233300
232300
21E300
21C300
20C300
208300
200380
F807C0
ENDCHAR
STARTCHAR 004E
ENCODING 78
SWIDTH 720 0
DWIDTH 16 0
BBX 16 16 0 0
BITMAP
F01F
3804
2C04
2E04
2704
2304
2184
20C4
20E4
2064
2034
201C
201C
200C
300C
F804
ENDCHAR
STARTCHAR 004F
ENCODING 79
SWIDTH 765 0
DWIDTH 17 0
BBX 15 16 1 0
BITMAP
0FE0
3838
301C
600C
E00E
C006
C006
C006
C006
C006
C006
E00E
600C
701C
3838
0FE0
ENDCHAR
STARTCHAR 0050
ENCODING 80
SWIDTH 585 0
DWIDTH 13 0
BBX 12 16 1 0
BITMAP
FF80
60E0
6070
6030
6030
6030
6060
60E0
6F80
7C00
6000
6000
6000
6000
6000
F800
ENDCHAR
STARTCHAR 0051
ENCODING 81
SWIDTH 765 0
DWIDTH 17 0
BBX 15 19 1 -3
BITMAP
0FE0
3838
301C
600C
E00E
C006
C006
C006
C006
C006
C006
E00E
610C
711C
38B8
0FE0
0040
007E
001E
ENDCHAR
STARTCHAR 0052
ENCODING 82
SWIDTH 630 0
DWIDTH 14 0
BBX 13 16 1 0
BITMAP
FFC0
60F0
6030
6030
6030
6070
60E0
67C0
7F80
61C0
60C0
6060
6060
6030
6030
F078
ENDCHAR
STARTCHAR 0053
ENCODING 83
SWIDTH 540 0
DWIDTH 12 0
BBX 12 16 0 0
BITMAP
1FC0
30E0
6020
6000
6000
7000
3C00
1FC0
03E0
0070
0030
0010
C030
4030
7060
3FC0
ENDCHAR
STARTCHAR 0054
ENCODING 84
SWIDTH 585 0
DWIDTH 13 0
BBX 13 16 0 0
BITMAP
FFF8
E338
8308
0300
0300
0300
0300
0300
0300
0300
0300
0300
0300
0300
0700
0F80
ENDCHAR
STARTCHAR 0055
ENCODING 85
SWIDTH 675 0
DWIDTH 15 0
BBX 14 16 1 0
BITMAP
F03C
6018
6018
6018
6018
4008
4008
C008
C008
C008
C008
6018
6018
6010
3030
1FE0
ENDCHAR
STARTCHAR 0056
ENCODING 86
SWIDTH 630 0
DWIDTH 14 0
BBX 15 16 0 0
BITMAP
F01E
600C
600C
6008
6018
3018
3010
3030
1830
1820
0C60
0C40
0EC0
0680
0780
0300
ENDCHAR
STARTCHAR 0057
ENCODING 87
SWIDTH 900 0
DWIDTH 20 0
BBX 20 16 0 0
BITMAP
F0F8F0
606030
606020
606020
207020
307060
307040
30D840
309840
1898C0
198C80
190C80
0F0D80
0F0700
0E0700
060300
ENDCHAR
STARTCHAR 0058
ENCODING 88
SWIDTH 630 0
DWIDTH 14 0
BBX 15 16 0 0
BITMAP
F87C
3018
3030
1820
1C40
0CC0
0780
0300
0380
07C0
0CE0
0860
1830
3018
3018
F83E
ENDCHAR
STARTCHAR 0059
ENCODING 89
SWIDTH 630 0
DWIDTH 14 0
BBX 15 16 0 0
BITMAP
F01E
600C
7018
3010
1830
1C20
0C40
06C0
0380
0300
0300
0300
0300
0300
0300
07C0
ENDCHAR
STARTCHAR 005A
ENCODING 90
SWIDTH 540 0
DWIDTH 12 0
BBX 12 16 0 0
BITMAP
7FF0
6060
4060
00C0
01C0
0180
0300
0600
0E00
0C00
1800
3800
3000
6010
E070
FFF0
ENDCHAR
STARTCHAR 005B
ENCODING 91
SWIDTH 315 0
DWIDTH 7 0
BBX 4 19 2 -3
BITMAP
F0
C0
C0
C0
C0
C0
C0
C0
C0
C0
C0
C0
C0
C0
C0
C0
C0
C0
F0
ENDCHAR
STARTCHAR 005C
ENCODING 92
SWIDTH 225 0
DWIDTH 5 0
BBX 6 18 0 -2
BITMAP
80
80
80
40
40
40
40
20
20
20
10
10
10
08
08
08
04
04
ENDCHAR
STARTCHAR 005D
ENCODING 93
SWIDTH 315 0
DWIDTH 7 0
BBX 4 19 1 -3
BITMAP
F0
10
10
10
10
10
10
10
10
10
10
10
10
10
10
10
10
10
F0
ENDCHAR
STARTCHAR 005E
ENCODING 94
SWIDTH 990 0
DWIDTH 22 0
BBX 12 6 5 10
BITMAP
0600
0F00
1980
30C0
6020
8010
ENDCHAR
STARTCHAR 005F
ENCODING 95
SWIDTH 495 0
DWIDTH 11 0
BBX 11 1 0 -5
BITMAP
FFE0
ENDCHAR
STARTCHAR 0060
ENCODING 96
SWIDTH 495 0
DWIDTH 11 0
BBX 4 4 3 12
BITMAP
80
C0
60
10
ENDCHAR
STARTCHAR 0061
ENCODING 97
SWIDTH 630 0
DWIDTH 14 0
BBX 15 16 0 0
BITMAP
0300
0380
0780
04C0
0CC0
0860
0860
1860
1030
3FF0
3038
2018
6018
6018
601C
F03E
ENDCHAR
STARTCHAR 0062
ENCODING 98
SWIDTH 630 0
DWIDTH 14 0
BBX 13 16 1 0
BITMAP
FFC0
60E0
6030
6030
6030
6060
61C0
6FC0
7870
6038
6018
6018
6018
6038
60F0
FFE0
ENDCHAR
STARTCHAR 0063
ENCODING 99
SWIDTH 675 0
DWIDTH 15 0
BBX 14 16 1 0
BITMAP
0FF0
1838
3018
6008
E000
C000
C000
C000
C000
C000
C000
E000
6004
700C
3838
1FF0
ENDCHAR
STARTCHAR 0064
ENCODING 100
SWIDTH 720 0
DWIDTH 16 0
BBX 14 16 1 0
BITMAP
FF80
60E0
6030
6018
601C
600C
600C
600C
600C
600C
600C
601C
6018
6030
60E0
FF80
ENDCHAR
STARTCHAR 0065
ENCODING 101
SWIDTH 585 0
DWIDTH 13 0
BBX 12 16 1 0
BITMAP
FFF0
6070
6010
6000
6000
6000
6040
7FC0
6040
6000
6000
6000
6000
6010
6070
FFF0
ENDCHAR
STARTCHAR 0066
ENCODING 102
SWIDTH 540 0
DWIDTH 12 0
BBX 11 16 1 0
BITMAP
FFE0
6060
6000
6000
6000
6000
6000
7FC0
60C0
6000
6000
6000
6000
6000
6000
F000
ENDCHAR
STARTCHAR 0067
ENCODING 103
SWIDTH 765 0
DWIDTH 17 0
BBX 15 16 1 0
BITMAP
0FF8
1C1C
300C
6004
6000
E000
C000
C000
C07E
C006
C006
E006
6006
7006
380C
0FF8
ENDCHAR
STARTCHAR 0068
ENCODING 104
SWIDTH 765 0
DWIDTH 17 0
BBX 15 16 1 0
BITMAP
F01E
600C
600C
600C
600C
600C
600C
7FFC
600C
600C
600C
600C
600C
600C
600C
F01E
ENDCHAR
STARTCHAR 0069
ENCODING 105
SWIDTH 270 0
DWIDTH 6 0
BBX 4 16 1 0
BITMAP
F0
60
60
60
60
60
60
60
60
60
60
60
60
60
60
F0
ENDCHAR
STARTCHAR 006A
ENCODING 106
SWIDTH 450 0
DWIDTH 10 0
BBX 9 16 0 0
BITMAP
0780
0300
0300
0300
0300
0300
0300
0300
0300
0300
6300
E300
C300
8300
C300
7E00
ENDCHAR
STARTCHAR 006B
ENCODING 107
SWIDTH 585 0
DWIDTH 13 0
BBX 13 16 1 0
BITMAP
F0F8
6060
6040
60C0
6180
6300
6600
6F00
7B80
71C0
60C0
6060
6060
6030
6030
F078
ENDCHAR
STARTCHAR 006C
ENCODING 108
SWIDTH 540 0
DWIDTH 12 0
BBX 12 16 1 0
BITMAP
F000
6000
6000
6000
6000
6000
6000
6000
6000
6000
6000
6000
6000
6010
6070
FFF0
ENDCHAR
STARTCHAR 006D
ENCODING 109
SWIDTH 810 0
DWIDTH 18 0
BBX 18 16 0 0
BITMAP
7803C0
380700
380700
3C0700
2C0F00
260B00
261B00
231300
233300
232300
21E300
21C300
20C300
208300
200380
F807C0
ENDCHAR
STARTCHAR 006E
ENCODING 110
SWIDTH 720 0
DWIDTH 16 0
BBX 16 16 0 0
BITMAP
F01F
3804
2C04
2E04
2704
2304
2184
20C4
20E4
2064
2034
201C
201C
200C
300C
F804
ENDCHAR
STARTCHAR 006F
ENCODING 111
SWIDTH 765 0
DWIDTH 17 0
BBX 15 16 1 0
BITMAP
0FE0
3838
301C
600C
E00E
C006
C006
C006
C006
C006
C006
E00E
600C
701C
3838
0FE0
ENDCHAR
STARTCHAR 0070
ENCODING 112
SWIDTH 585 0
DWIDTH 13 0
BBX 12 16 1 0
BITMAP
FF80
60E0
6070
6030
6030
6030
6060
60E0
6F80
7C00
6000
6000
6000
6000
6000
F800
ENDCHAR
STARTCHAR 0071
ENCODING 113
SWIDTH 765 0
DWIDTH 17 0
BBX 15 19 1 -3
BITMAP
0FE0
3838
301C
600C
E00E
C006
C006
C006
C006
C006
C006
E00E
610C
711C
38B8
0FE0
0040
007E
001E
ENDCHAR
STARTCHAR 0072
ENCODING 114
SWIDTH 630 0
DWIDTH 14 0
BBX 13 16 1 0
BITMAP
FFC0
60F0
6030
6030
6030
6070
60E0
67C0
7F80
61C0
60C0
6060
6060
6030
6030
F078
ENDCHAR
STARTCHAR 0073
ENCODING 115
SWIDTH 540 0
DWIDTH 12 0
BBX 12 16 0 0
BITMAP
1FC0
30E0
6020
6000
6000
7000
3C00
1FC0
03E0
0070
0030
0010
C030
4030
7060
3FC0
ENDCHAR
STARTCHAR 0074
ENCODING 116
SWIDTH 585 0
DWIDTH 13 0
BBX 13 16 0 0
BITMAP
FFF8
E338
8308
0300
0300
0300
0300
0300
0300
0300
0300
0300
0300
0300
0700
0F80
ENDCHAR
STARTCHAR 0075
ENCODING 117
SWIDTH 675 0
DWIDTH 15 0
BBX 14 16 1 0
BITMAP
F03C
6018
6018
6018
6018
4008
4008
C008
C008
C008
C008
6018
6018
6010
3030
1FE0
ENDCHAR
STARTCHAR 0076
ENCODING 118
SWIDTH 630 0
DWIDTH 14 0
BBX 15 16 0 0
BITMAP
F01E
600C
600C
6008
6018
3018
3010
3030
1830
1820
0C60
0C40
0EC0
0680
0780
0300
ENDCHAR
STARTCHAR 0077
ENCODING 119
SWIDTH 900 0
DWIDTH 20 0
BBX 20 16 0 0
BITMAP
F0F8F0
606030
606020
606020
207020
307060
307040
30D840
309840
1898C0
198C80
190C80
0F0D80
0F0700
0E0700
060300
ENDCHAR
STARTCHAR 0078
ENCODING 120
SWIDTH 630 0
DWIDTH 14 0
BBX 15 16 0 0
BITMAP
F87C
3018
3030
1820
1C40
0CC0
0780
0300
0380
07C0
0CE0
0860
1830
3018
3018
F83E
ENDCHAR
STARTCHAR 0079
ENCODING 121
SWIDTH 630 0
DWIDTH 14 0
BBX 15 16 0 0
BITMAP
F01E
600C
7018
3010
1830
1C20
0C40
06C0
0380
0300
0300
0300
0300
0300
0300
07C0
ENDCHAR
STARTCHAR 007A
ENCODING 122
SWIDTH 540 0
DWIDTH 12 0
BBX 12 16 0 0
BITMAP
7FF0
6060
4060
00C0
01C0
0180
0300
0600
0E00
0C00
1800
3800
3000
6010
E070
FFF0
ENDCHAR
STARTCHAR 007B
ENCODING 123
SWIDTH 495 0
DWIDTH 11 0
BBX 7 19 2 -3
BITMAP
0E
18
18
18
18
10
10
10
60
E0
10
10
10
18
18
18
18
08
06
ENDCHAR
STARTCHAR 007C
ENCODING 124
SWIDTH 495 0
DWIDTH 11 0
BBX 1 22 5 -5
BITMAP
80
80
80
80
80
80
80
80
80
80
80
80
80
80
80
80
80
80
80
80
80
80
ENDCHAR
STARTCHAR 007D
ENCODING 125
SWIDTH 495 0
DWIDTH 11 0
BBX 7 19 2 -3
BITMAP
E0
30
10
10
10
10
10
10
0C
0E
18
10
10
10
10
10
30
30
C0
ENDCHAR
STARTCHAR 007E
ENCODING 126
SWIDTH 810 0
DWIDTH 18 0
BBX 15 3 2 5
BITMAP
3E06
E3FC
8070
ENDCHAR
STARTCHAR 0080
ENCODING 128
SWIDTH 630 0
DWIDTH 14 0
BBX 15 21 0 1
BITMAP
0C00
0600
0100
0080
0000
0300
0380
0780
04C0
0CC0
0860
0860
1860
1030
3FF0
3038
2018
6018
6018
601C
F03E
ENDCHAR
STARTCHAR 0081
ENCODING 129
SWIDTH 630 0
DWIDTH 14 0
BBX 15 23 0 0
BITMAP
0100
0280
0080
0080
0300
0000
0000
0300
0380
0780
04C0
0CC0
0860
0860
1860
1030
3FF0
3038
2018
6018
6018
601C
F03E
ENDCHAR
STARTCHAR 008D
ENCODING 141
SWIDTH 630 0
DWIDTH 14 0
BBX 15 24 0 0
BITMAP
0060
00C0
0180
0200
0840
0780
0000
0000
0300
0380
0780
04C0
0CC0
0860
0860
1860
1030
3FF0
3038
2018
6018
6018
601C
F03E
ENDCHAR
STARTCHAR 008E
ENCODING 142
SWIDTH 630 0
DWIDTH 14 0
BBX 15 25 0 0
BITMAP
1000
1800
0C00
0200
0000
0840
0780
0000
0000
0300
0380
0780
04C0
0CC0
0860
0860
1860
1030
3FF0
3038
2018
6018
6018
601C
F03E
ENDCHAR
STARTCHAR 008F
ENCODING 143
SWIDTH 630 0
DWIDTH 14 0
BBX 15 25 0 0
BITMAP
0380
0080
0080
0300
0000
0840
0780
0000
0000
0300
0380
0780
04C0
0CC0
0860
0860
1860
1030
3FF0
3038
2018
6018
6018
601C
F03E
ENDCHAR
STARTCHAR 0090
ENCODING 144
SWIDTH 585 0
DWIDTH 13 0
BBX 13 24 1 0
BITMAP
0018
0038
0060
0600
0D00
0880
0000
0000
FFF0
6070
6010
6000
6000
6000
6040
7FC0
6040
6000
6000
6000
6000
6010
6070
FFF0
ENDCHAR
STARTCHAR 009D
ENCODING 157
SWIDTH 765 0
DWIDTH 17 0
BBX 15 23 1 0
BITMAP
0020
0060
00C0
011C
0002
0004
0008
0FF0
3838
301C
600C
E00E
C006
C006
C006
C006
C006
C006
E00E
600C
701C
3838
0FE0
ENDCHAR
STARTCHAR 009E
ENCODING 158
SWIDTH 765 0
DWIDTH 17 0
BBX 15 23 1 0
BITMAP
0C00
0600
0300
009C
0002
0004
0008
0FF0
3838
301C
600C
E00E
C006
C006
C006
C006
C006
C006
E00E
600C
701C
3838
0FE0
ENDCHAR
STARTCHAR 00A0
ENCODING 160
SWIDTH 540 0
DWIDTH 12 0
BBX 0 0 0 0
BITMAP
ENDCHAR
STARTCHAR 00A1
ENCODING 161
SWIDTH 630 0
DWIDTH 14 0
BBX 15 24 0 0
BITMAP
0060
00C0
0180
0200
0840
0780
0000
0000
0300
0380
0780
04C0
0CC0
0860
0860
1860
1030
3FF0
3038
2018
6018
6018
601C
F03E
ENDCHAR
STARTCHAR 00A2
ENCODING 162
SWIDTH 630 0
DWIDTH 14 0
BBX 15 25 0 0
BITMAP
1000
1800
0C00
0200
0000
0840
0780
0000
0000
0300
0380
0780
04C0
0CC0
0860
0860
1860
1030
3FF0
3038
2018
6018
6018
601C
F03E
ENDCHAR
STARTCHAR 00A3
ENCODING 163
SWIDTH 630 0
DWIDTH 14 0
BBX 15 25 0 0
BITMAP
0380
0080
0080
0300
0000
0840
0780
0000
0000
0300
0380
0780
04C0
0CC0
0860
0860
1860
1030
3FF0
3038
2018
6018
6018
601C
F03E
ENDCHAR
STARTCHAR 00A4
ENCODING 164
SWIDTH 630 0
DWIDTH 14 0
BBX 15 24 0 0
BITMAP
0740
0FC0
0000
0000
0840
0780
0000
0000
0300
0380
0780
04C0
0CC0
0860
0860
1860
1030
3FF0
3038
2018
6018
6018
601C
F03E
ENDCHAR
STARTCHAR 00A5
ENCODING 165
SWIDTH 630 0
DWIDTH 14 0
BBX 15 23 0 -3
BITMAP
0840
0780
0000
0000
0300
0380
0780
04C0
0CC0
0860
0860
1860
1030
3FF0
3038
2018
6018
6018
601C
F03E
0000
0300
0700
ENDCHAR
STARTCHAR 00A6
ENCODING 166
SWIDTH 765 0
DWIDTH 17 0
BBX 15 24 1 0
BITMAP
0340
07C0
0800
0000
001C
0002
0004
0008
0FF0
3838
301C
600C
E00E
C006
C006
C006
C006
C006
C006
E00E
600C
701C
3838
0FE0
ENDCHAR
STARTCHAR 00A7
ENCODING 167
SWIDTH 765 0
DWIDTH 17 0
BBX 15 23 1 0
BITMAP
0020
0060
00C0
011C
0002
0004
0008
0FF0
3838
301C
600C
E00E
C006
C006
C006
C006
C006
C006
E00E
600C
701C
3838
0FE0
ENDCHAR
STARTCHAR 00A8
ENCODING 168
SWIDTH 675 0
DWIDTH 15 0
BBX 14 21 1 1
BITMAP
0C00
0600
0100
0080
0000
F03C
6018
6018
6018
6018
4008
4008
C008
C008
C008
C008
6018
6018
6010
3030
1FE0
ENDCHAR
STARTCHAR 00A9
ENCODING 169
SWIDTH 765 0
DWIDTH 17 0
BBX 15 23 1 0
BITMAP
0C00
0600
0300
009C
0002
0004
0008
0FF0
3838
301C
600C
E00E
C006
C006
C006
C006
C006
C006
E00E
600C
701C
3838
0FE0
ENDCHAR
STARTCHAR 00AA
ENCODING 170
SWIDTH 765 0
DWIDTH 17 0
BBX 15 24 1 0
BITMAP
0380
0240
0040
0180
011C
0002
0004
0008
0FF0
3838
301C
600C
E00E
C006
C006
C006
C006
C006
C006
E00E
600C
701C
3838
0FE0
ENDCHAR
STARTCHAR 00AB
ENCODING 171
SWIDTH 765 0
DWIDTH 17 0
BBX 15 24 1 0
BITMAP
0340
07C0
0800
0000
001C
0002
0004
0008
0FF0
3838
301C
600C
E00E
C006
C006
C006
C006
C006
C006
E00E
600C
701C
3838
0FE0
ENDCHAR
STARTCHAR 00AC
ENCODING 172
SWIDTH 675 0
DWIDTH 15 0
BBX 14 21 1 0
BITMAP
0020
07E0
04C0
0000
0000
F03C
6018
6018
6018
6018
4008
4008
C008
C008
C008
C008
6018
6018
6010
3030
1FE0
ENDCHAR
STARTCHAR 00AD
ENCODING 173
SWIDTH 675 0
DWIDTH 15 0
BBX 16 23 1 0
BITMAP
0060
0060
0080
010E
0001
0002
0004
F03C
6018
6018
6018
6018
4008
4008
C008
C008
C008
C008
6018
6018
6010
3030
1FE0
ENDCHAR
STARTCHAR 00AE
ENCODING 174
SWIDTH 765 0
DWIDTH 17 0
BBX 15 24 1 -4
BITMAP
001C
0002
0004
0008
0FF0
3838
301C
600C
E00E
C006
C006
C006
C006
C006
C006
E00E
600C
701C
3838
0FE0
0000
0100
0380
0100
ENDCHAR
STARTCHAR 00AF
ENCODING 175
SWIDTH 675 0
DWIDTH 15 0
BBX 16 23 1 0
BITMAP
0800
0C00
0600
010E
0001
0002
0004
F03C
6018
6018
6018
6018
4008
4008
C008
C008
C008
C008
6018
6018
6010
3030
1FE0
ENDCHAR
STARTCHAR 00B0
ENCODING 176
SWIDTH 765 0
DWIDTH 17 0
BBX 15 25 1 0
BITMAP
0038
0028
0008
0018
03A0
0280
0440
0000
0000
0FE0
3838
301C
600C
E00E
C006
C006
C006
C006
C006
C006
E00E
600C
701C
3838
0FE0
ENDCHAR
STARTCHAR 00B1
ENCODING 177
SWIDTH 675 0
DWIDTH 15 0
BBX 16 23 1 0
BITMAP
0380
0040
0080
010E
0101
0002
0004
F03C
6018
6018
6018
6018
4008
4008
C008
C008
C008
C008
6018
6018
6010
3030
1FE0
ENDCHAR
STARTCHAR 00B2
ENCODING 178
SWIDTH 630 0
DWIDTH 14 0
BBX 15 21 0 0
BITMAP
0C00
0600
0300
0080
0000
F01E
600C
7018
3010
1830
1C20
0C40
06C0
0380
0300
0300
0300
0300
0300
0300
07C0
ENDCHAR
STARTCHAR 00B3
ENCODING 179
SWIDTH 630 0
DWIDTH 14 0
BBX 15 20 0 1
BITMAP
03E0
0400
0000
0000
F01E
600C
7018
3010
1830
1C20
0C40
06C0
0380
0300
0300
0300
0300
0300
0300
07C0
ENDCHAR
STARTCHAR 00B4
ENCODING 180
SWIDTH 270 0
DWIDTH 6 0
BBX 5 21 1 1
BITMAP
18
30
40
00
00
F0
60
60
60
60
60
60
60
60
60
60
60
60
60
60
F0
ENDCHAR
STARTCHAR 00B5
ENCODING 181
SWIDTH 270 0
DWIDTH 6 0
BBX 5 21 0 1
BITMAP
C0
60
10
00
00
78
30
30
30
30
30
30
30
30
30
30
30
30
30
30
78
ENDCHAR
STARTCHAR 00B6
ENCODING 182
SWIDTH 765 0
DWIDTH 17 0
BBX 15 25 1 -4
BITMAP
0380
0280
0440
0000
0000
0FE0
3838
301C
600C
E00E
C006
C006
C006
C006
C006
C006
E00E
600C
701C
3838
0FE0
0000
0100
0380
0100
ENDCHAR
STARTCHAR 00B8
ENCODING 184
SWIDTH 270 0
DWIDTH 6 0
BBX 6 20 0 0
BITMAP
74
B8
00
00
78
30
30
30
30
30
30
30
30
30
30
30
30
30
30
78
ENDCHAR
STARTCHAR 00B9
ENCODING 185
SWIDTH 765 0
DWIDTH 17 0
BBX 15 21 1 1
BITMAP
00E0
0180
0300
0000
0000
0FE0
3838
301C
600C
E00E
C006
C006
C006
C006
C006
C006
E00E
600C
701C
3838
0FE0
ENDCHAR
STARTCHAR 00BA
ENCODING 186
SWIDTH 675 0
DWIDTH 15 0
BBX 16 23 1 0
BITMAP
0380
0040
0080
010E
0101
0002
0004
F03C
6018
6018
6018
6018
4008
4008
C008
C008
C008
C008
6018
6018
6010
3030
1FE0
ENDCHAR
STARTCHAR 00BB
ENCODING 187
SWIDTH 675 0
DWIDTH 15 0
BBX 16 24 1 0
BITMAP
07C0
09C0
0000
0000
000E
0001
0002
0004
F03C
6018
6018
6018
6018
4008
4008
C008
C008
C008
C008
6018
6018
6010
3030
1FE0
ENDCHAR
STARTCHAR 00BC
ENCODING 188
SWIDTH 765 0
DWIDTH 17 0
BBX 15 21 1 1
BITMAP
0600
0300
0180
0000
0000
0FE0
3838
301C
600C
E00E
C006
C006
C006
C006
C006
C006
E00E
600C
701C
3838
0FE0
ENDCHAR
STARTCHAR 00BD
ENCODING 189
SWIDTH 765 0
DWIDTH 17 0
BBX 15 22 1 0
BITMAP
03C0
0040
0080
0100
0000
0000
0FE0
3838
301C
600C
E00E
C006
C006
C006
C006
C006
C006
E00E
600C
701C
3838
0FE0
ENDCHAR
STARTCHAR 00BE
ENCODING 190
SWIDTH 765 0
DWIDTH 17 0
BBX 15 21 1 0
BITMAP
0020
07C0
0000
0000
0000
0FE0
3838
301C
600C
E00E
C006
C006
C006
C006
C006
C006
E00E
600C
701C
3838
0FE0
ENDCHAR
STARTCHAR 00BF
ENCODING 191
SWIDTH 675 0
DWIDTH 15 0
BBX 16 24 1 -4
BITMAP
000E
0001
0002
0004
F03C
6018
6018
6018
6018
4008
4008
C008
C008
C008
C008
6018
6018
6010
3030
1FE0
0000
0200
0300
0200
ENDCHAR
STARTCHAR 00C0
ENCODING 192
SWIDTH 630 0
DWIDTH 14 0
BBX 15 24 0 0
BITMAP
C000
6000
3000
0B80
0680
0440
0000
0000
0300
0380
0780
04C0
0CC0
0860
0860
1860
1030
3FF0
3038
2018
6018
6018
601C
F03E
ENDCHAR
STARTCHAR 00C1
ENCODING 193
SWIDTH 630 0
DWIDTH 14 0
BBX 15 22 0 0
BITMAP
0040
00C0
0180
0300
0000
0000
0300
0380
0780
04C0
0CC0
0860
0860
1860
1030
3FF0
3038
2018
6018
6018
601C
F03E
ENDCHAR
STARTCHAR 00C2
ENCODING 194
SWIDTH 630 0
DWIDTH 14 0
BBX 15 21 0 0
BITMAP
0380
0680
0440
0000
0000
0300
0380
0780
04C0
0CC0
0860
0860
1860
1030
3FF0
3038
2018
6018
6018
601C
F03E
ENDCHAR
STARTCHAR 00C3
ENCODING 195
SWIDTH 630 0
DWIDTH 14 0
BBX 15 24 0 0
BITMAP
0006
000C
0018
03A0
0680
0440
0000
0000
0300
0380
0780
04C0
0CC0
0860
0860
1860
1030
3FF0
3038
2018
6018
6018
601C
F03E
ENDCHAR
STARTCHAR 00C4
ENCODING 196
SWIDTH 630 0
DWIDTH 14 0
BBX 15 25 0 0
BITMAP
0070
0008
0010
0020
03A0
0680
0440
0000
0000
0300
0380
0780
04C0
0CC0
0860
0860
1860
1030
3FF0
3038
2018
6018
6018
601C
F03E
ENDCHAR
STARTCHAR 00C5
ENCODING 197
SWIDTH 630 0
DWIDTH 14 0
BBX 15 24 0 0
BITMAP
0740
0FC0
0000
0380
0680
0440
0000
0000
0300
0380
0780
04C0
0CC0
0860
0860
1860
1030
3FF0
3038
2018
6018
6018
601C
F03E
ENDCHAR
STARTCHAR 00C6
ENCODING 198
SWIDTH 630 0
DWIDTH 14 0
BBX 15 24 0 -3
BITMAP
0380
0680
0440
0000
0000
0300
0380
0780
04C0
0CC0
0860
0860
1860
1030
3FF0
3038
2018
6018
6018
601C
F03E
0000
0300
0700
ENDCHAR
STARTCHAR 00C7
ENCODING 199
SWIDTH 720 0
DWIDTH 16 0
BBX 15 16 0 0
BITMAP
7FC0
3070
3018
300C
300E
3006
3006
FF06
3006
3006
3006
300E
300C
3018
3070
7FC0
ENDCHAR
STARTCHAR 00C8
ENCODING 200
SWIDTH 585 0
DWIDTH 13 0
BBX 12 23 1 0
BITMAP
0200
0500
0100
0100
0600
0000
0000
FFF0
6070
6010
6000
6000
6000
6040
7FC0
6040
6000
6000
6000
6000
6010
6070
FFF0
ENDCHAR
STARTCHAR 00C9
ENCODING 201
SWIDTH 585 0
DWIDTH 13 0
BBX 12 22 1 0
BITMAP
0080
0180
0300
0400
0000
0000
FFF0
6070
6010
6000
6000
6000
6040
7FC0
6040
6000
6000
6000
6000
6010
6070
FFF0
ENDCHAR
STARTCHAR 00CA
ENCODING 202
SWIDTH 585 0
DWIDTH 13 0
BBX 12 21 1 0
BITMAP
0600
0D00
0880
0000
0000
FFF0
6070
6010
6000
6000
6000
6040
7FC0
6040
6000
6000
6000
6000
6010
6070
FFF0
ENDCHAR
STARTCHAR 00CB
ENCODING 203
SWIDTH 585 0
DWIDTH 13 0
BBX 12 19 1 -3
BITMAP
FFF0
6070
6010
6000
6000
6000
6040
7FC0
6040
6000
6000
6000
6000
6010
6070
FFF0
0000
0600
0E00
ENDCHAR
STARTCHAR 00CC
ENCODING 204
SWIDTH 270 0
DWIDTH 6 0
BBX 4 23 1 0
BITMAP
60
50
10
20
40
00
00
F0
60
60
60
60
60
60
60
60
60
60
60
60
60
60
F0
ENDCHAR
STARTCHAR 00CD
ENCODING 205
SWIDTH 585 0
DWIDTH 13 0
BBX 12 24 1 0
BITMAP
0E80
1F80
0000
0600
0D00
0880
0000
0000
FFF0
6070
6010
6000
6000
6000
6040
7FC0
6040
6000
6000
6000
6000
6010
6070
FFF0
ENDCHAR
STARTCHAR 00CE
ENCODING 206
SWIDTH 270 0
DWIDTH 6 0
BBX 4 20 1 -4
BITMAP
F0
60
60
60
60
60
60
60
60
60
60
60
60
60
60
F0
00
20
60
60
ENDCHAR
STARTCHAR 00CF
ENCODING 207
SWIDTH 630 0
DWIDTH 14 0
BBX 15 20 0 1
BITMAP
03E0
0400
0000
0000
F01E
600C
7018
3010
1830
1C20
0C40
06C0
0380
0300
0300
0300
0300
0300
0300
07C0
ENDCHAR
STARTCHAR 00D0
ENCODING 208
SWIDTH 675 0
DWIDTH 15 0
BBX 16 20 1 0
BITMAP
000E
0001
0002
0004
F03C
6018
6018
6018
6018
4008
4008
C008
C008
C008
C008
6018
6018
6010
3030
1FE0
ENDCHAR
STARTCHAR 00D1
ENCODING 209
SWIDTH 675 0
DWIDTH 15 0
BBX 14 23 1 0
BITMAP
0100
0280
0080
0080
0100
0000
0000
F03C
6018
6018
6018
6018
4008
4008
C008
C008
C008
C008
6018
6018
6010
3030
1FE0
ENDCHAR
STARTCHAR 00D2
ENCODING 210
SWIDTH 765 0
DWIDTH 17 0
BBX 15 24 1 0
BITMAP
C000
6000
3000
0B80
0280
0440
0000
0000
0FE0
3838
301C
600C
E00E
C006
C006
C006
C006
C006
C006
E00E
600C
701C
3838
0FE0
ENDCHAR
STARTCHAR 00D3
ENCODING 211
SWIDTH 765 0
DWIDTH 17 0
BBX 15 24 1 0
BITMAP
0006
000C
0018
03A0
0280
0440
0000
0000
0FE0
3838
301C
600C
E00E
C006
C006
C006
C006
C006
C006
E00E
600C
701C
3838
0FE0
ENDCHAR
STARTCHAR 00D4
ENCODING 212
SWIDTH 765 0
DWIDTH 17 0
BBX 15 21 1 0
BITMAP
0380
0280
0440
0000
0000
0FE0
3838
301C
600C
E00E
C006
C006
C006
C006
C006
C006
E00E
600C
701C
3838
0FE0
ENDCHAR
STARTCHAR 00D5
ENCODING 213
SWIDTH 765 0
DWIDTH 17 0
BBX 15 22 1 0
BITMAP
03C0
0040
0080
0100
0000
0000
0FE0
3838
301C
600C
E00E
C006
C006
C006
C006
C006
C006
E00E
600C
701C
3838
0FE0
ENDCHAR
STARTCHAR 00D6
ENCODING 214
SWIDTH 765 0
DWIDTH 17 0
BBX 15 20 1 0
BITMAP
001C
0002
0004
0008
0FF0
3838
301C
600C
E00E
C006
C006
C006
C006
C006
C006
E00E
600C
701C
3838
0FE0
ENDCHAR
STARTCHAR 00D7
ENCODING 215
SWIDTH 585 0
DWIDTH 13 0
BBX 12 21 1 1
BITMAP
1800
0C00
0200
0100
0000
FFF0
6070
6010
6000
6000
6000
6040
7FC0
6040
6000
6000
6000
6000
6010
6070
FFF0
ENDCHAR
STARTCHAR 00D8
ENCODING 216
SWIDTH 675 0
DWIDTH 15 0
BBX 16 23 1 0
BITMAP
0800
0C00
0600
010E
0001
0002
0004
F03C
6018
6018
6018
6018
4008
4008
C008
C008
C008
C008
6018
6018
6010
3030
1FE0
ENDCHAR
STARTCHAR 00D9
ENCODING 217
SWIDTH 675 0
DWIDTH 15 0
BBX 16 23 1 0
BITMAP
0060
0060
0080
010E
0001
0002
0004
F03C
6018
6018
6018
6018
4008
4008
C008
C008
C008
C008
6018
6018
6010
3030
1FE0
ENDCHAR
STARTCHAR 00DA
ENCODING 218
SWIDTH 675 0
DWIDTH 15 0
BBX 14 21 1 1
BITMAP
00C0
0180
0200
0000
0000
F03C
6018
6018
6018
6018
4008
4008
C008
C008
C008
C008
6018
6018
6010
3030
1FE0
ENDCHAR
STARTCHAR 00DB
ENCODING 219
SWIDTH 675 0
DWIDTH 15 0
BBX 14 21 1 0
BITMAP
0020
07E0
04C0
0000
0000
F03C
6018
6018
6018
6018
4008
4008
C008
C008
C008
C008
6018
6018
6010
3030
1FE0
ENDCHAR
STARTCHAR 00DC
ENCODING 220
SWIDTH 675 0
DWIDTH 15 0
BBX 16 20 1 0
BITMAP
000E
0001
0002
0004
F03C
6018
6018
6018
6018
4008
4008
C008
C008
C008
C008
6018
6018
6010
3030
1FE0
ENDCHAR
STARTCHAR 00DD
ENCODING 221
SWIDTH 630 0
DWIDTH 14 0
BBX 15 22 0 0
BITMAP
0040
00C0
0180
0300
0000
0000
F01E
600C
7018
3010
1830
1C20
0C40
06C0
0380
0300
0300
0300
0300
0300
0300
07C0
ENDCHAR
STARTCHAR 00DE
ENCODING 222
SWIDTH 585 0
DWIDTH 13 0
BBX 12 23 1 0
BITMAP
0200
0500
0100
0100
0600
0000
0000
FFF0
6070
6010
6000
6000
6000
6040
7FC0
6040
6000
6000
6000
6000
6010
6070
FFF0
ENDCHAR
STARTCHAR 00DF
ENCODING 223
SWIDTH 630 0
DWIDTH 14 0
BBX 14 16 0 0
BITMAP
0FE0
1830
3018
3018
3018
3030
30E0
37E0
3018
3008
300C
340C
3C0C
3C0C
3638
F3F0
ENDCHAR
STARTCHAR 00E0
ENCODING 224
SWIDTH 630 0
DWIDTH 14 0
BBX 15 21 0 1
BITMAP
0C00
0600
0100
0080
0000
0300
0380
0780
04C0
0CC0
0860
0860
1860
1030
3FF0
3038
2018
6018
6018
601C
F03E
ENDCHAR
STARTCHAR 00E1
ENCODING 225
SWIDTH 630 0
DWIDTH 14 0
BBX 15 22 0 0
BITMAP
0040
00C0
0180
0300
0000
0000
0300
0380
0780
04C0
0CC0
0860
0860
1860
1030
3FF0
3038
2018
6018
6018
601C
F03E
ENDCHAR
STARTCHAR 00E2
ENCODING 226
SWIDTH 630 0
DWIDTH 14 0
BBX 15 21 0 0
BITMAP
0380
0680
0440
0000
0000
0300
0380
0780
04C0
0CC0
0860
0860
1860
1030
3FF0
3038
2018
6018
6018
601C
F03E
ENDCHAR
STARTCHAR 00E3
ENCODING 227
SWIDTH 630 0
DWIDTH 14 0
BBX 15 20 0 1
BITMAP
07C0
0800
0000
0000
0300
0380
0780
04C0
0CC0
0860
0860
1860
1030
3FF0
3038
2018
6018
6018
601C
F03E
ENDCHAR
STARTCHAR 00E4
ENCODING 228
SWIDTH 630 0
DWIDTH 14 0
BBX 15 23 0 0
BITMAP
0100
0280
0080
0080
0300
0000
0000
0300
0380
0780
04C0
0CC0
0860
0860
1860
1030
3FF0
3038
2018
6018
6018
601C
F03E
ENDCHAR
STARTCHAR 00E5
ENCODING 229
SWIDTH 630 0
DWIDTH 14 0
BBX 15 19 0 -3
BITMAP
0300
0380
0780
04C0
0CC0
0860
0860
1860
1030
3FF0
3038
2018
6018
6018
601C
F03E
0000
0300
0700
ENDCHAR
STARTCHAR 00E6
ENCODING 230
SWIDTH 630 0
DWIDTH 14 0
BBX 15 20 0 0
BITMAP
0840
0780
0000
0000
0300
0380
0780
04C0
0CC0
0860
0860
1860
1030
3FF0
3038
2018
6018
6018
601C
F03E
ENDCHAR
STARTCHAR 00E7
ENCODING 231
SWIDTH 675 0
DWIDTH 15 0
BBX 14 21 1 -5
BITMAP
0FF0
1838
3018
6008
E000
C000
C000
C000
C000
C000
C000
E000
6004
700C
3838
1FF0
0100
01C0
0040
0440
0380
ENDCHAR
STARTCHAR 00E8
ENCODING 232
SWIDTH 585 0
DWIDTH 13 0
BBX 12 21 1 1
BITMAP
1800
0C00
0200
0100
0000
FFF0
6070
6010
6000
6000
6000
6040
7FC0
6040
6000
6000
6000
6000
6010
6070
FFF0
ENDCHAR
STARTCHAR 00E9
ENCODING 233
SWIDTH 585 0
DWIDTH 13 0
BBX 12 22 1 0
BITMAP
0080
0180
0300
0400
0000
0000
FFF0
6070
6010
6000
6000
6000
6040
7FC0
6040
6000
6000
6000
6000
6010
6070
FFF0
ENDCHAR
STARTCHAR 00EA
ENCODING 234
SWIDTH 585 0
DWIDTH 13 0
BBX 12 21 1 0
BITMAP
0600
0D00
0880
0000
0000
FFF0
6070
6010
6000
6000
6000
6040
7FC0
6040
6000
6000
6000
6000
6010
6070
FFF0
ENDCHAR
STARTCHAR 00EB
ENCODING 235
SWIDTH 585 0
DWIDTH 13 0
BBX 12 20 1 0
BITMAP
1F80
1700
0000
0000
FFF0
6070
6010
6000
6000
6000
6040
7FC0
6040
6000
6000
6000
6000
6010
6070
FFF0
ENDCHAR
STARTCHAR 00EC
ENCODING 236
SWIDTH 270 0
DWIDTH 6 0
BBX 5 21 0 1
BITMAP
C0
60
10
00
00
78
30
30
30
30
30
30
30
30
30
30
30
30
30
30
78
ENDCHAR
STARTCHAR 00ED
ENCODING 237
SWIDTH 270 0
DWIDTH 6 0
BBX 5 21 1 1
BITMAP
18
30
40
00
00
F0
60
60
60
60
60
60
60
60
60
60
60
60
60
60
F0
ENDCHAR
STARTCHAR 00EE
ENCODING 238
SWIDTH 270 0
DWIDTH 6 0
BBX 6 21 0 0
BITMAP
30
78
C4
00
00
78
30
30
30
30
30
30
30
30
30
30
30
30
30
30
78
ENDCHAR
STARTCHAR 00EF
ENCODING 239
SWIDTH 270 0
DWIDTH 6 0
BBX 6 20 0 0
BITMAP
74
B8
00
00
78
30
30
30
30
30
30
30
30
30
30
30
30
30
30
78
ENDCHAR
STARTCHAR 00F0
ENCODING 240
SWIDTH 630 0
DWIDTH 14 0
BBX 15 24 0 0
BITMAP
0740
0FC0
0000
0000
0840
0780
0000
0000
0300
0380
0780
04C0
0CC0
0860
0860
1860
1030
3FF0
3038
2018
6018
6018
601C
F03E
ENDCHAR
STARTCHAR 00F1
ENCODING 241
SWIDTH 720 0
DWIDTH 16 0
BBX 15 16 0 0
BITMAP
7FC0
3070
3018
300C
300E
3006
3006
FF06
3006
3006
3006
300E
300C
3018
3070
7FC0
ENDCHAR
STARTCHAR 00F2
ENCODING 242
SWIDTH 765 0
DWIDTH 17 0
BBX 15 21 1 1
BITMAP
0600
0300
0180
0000
0000
0FE0
3838
301C
600C
E00E
C006
C006
C006
C006
C006
C006
E00E
600C
701C
3838
0FE0
ENDCHAR
STARTCHAR 00F3
ENCODING 243
SWIDTH 765 0
DWIDTH 17 0
BBX 15 21 1 1
BITMAP
00E0
0180
0300
0000
0000
0FE0
3838
301C
600C
E00E
C006
C006
C006
C006
C006
C006
E00E
600C
701C
3838
0FE0
ENDCHAR
STARTCHAR 00F4
ENCODING 244
SWIDTH 765 0
DWIDTH 17 0
BBX 15 21 1 0
BITMAP
0380
0280
0440
0000
0000
0FE0
3838
301C
600C
E00E
C006
C006
C006
C006
C006
C006
E00E
600C
701C
3838
0FE0
ENDCHAR
STARTCHAR 00F5
ENCODING 245
SWIDTH 765 0
DWIDTH 17 0
BBX 15 21 1 0
BITMAP
0020
07C0
0000
0000
0000
0FE0
3838
301C
600C
E00E
C006
C006
C006
C006
C006
C006
E00E
600C
701C
3838
0FE0
ENDCHAR
STARTCHAR 00F6
ENCODING 246
SWIDTH 765 0
DWIDTH 17 0
BBX 15 20 1 0
BITMAP
06E0
0440
0000
0000
0FE0
3838
301C
600C
E00E
C006
C006
C006
C006
C006
C006
E00E
600C
701C
3838
0FE0
ENDCHAR
STARTCHAR 00F7
ENCODING 247
SWIDTH 765 0
DWIDTH 17 0
BBX 15 20 1 0
BITMAP
001C
0002
0004
0008
0FF0
3838
301C
600C
E00E
C006
C006
C006
C006
C006
C006
E00E
600C
701C
3838
0FE0
ENDCHAR
STARTCHAR 00F8
ENCODING 248
SWIDTH 675 0
DWIDTH 15 0
BBX 14 20 1 -4
BITMAP
F03C
6018
6018
6018
6018
4008
4008
C008
C008
C008
C008
6018
6018
6010
3030
1FE0
0000
0000
0300
0300
ENDCHAR
STARTCHAR 00F9
ENCODING 249
SWIDTH 675 0
DWIDTH 15 0
BBX 14 21 1 1
BITMAP
0C00
0600
0100
0080
0000
F03C
6018
6018
6018
6018
4008
4008
C008
C008
C008
C008
6018
6018
6010
3030
1FE0
ENDCHAR
STARTCHAR 00FA
ENCODING 250
SWIDTH 675 0
DWIDTH 15 0
BBX 14 21 1 1
BITMAP
00C0
0180
0200
0000
0000
F03C
6018
6018
6018
6018
4008
4008
C008
C008
C008
C008
6018
6018
6010
3030
1FE0
ENDCHAR
STARTCHAR 00FB
ENCODING 251
SWIDTH 675 0
DWIDTH 15 0
BBX 14 23 1 0
BITMAP
0100
0280
0080
0080
0100
0000
0000
F03C
6018
6018
6018
6018
4008
4008
C008
C008
C008
C008
6018
6018
6010
3030
1FE0
ENDCHAR
STARTCHAR 00FC
ENCODING 252
SWIDTH 675 0
DWIDTH 15 0
BBX 14 20 1 0
BITMAP
0CC0
0CC0
0000
0000
F03C
6018
6018
6018
6018
4008
4008
C008
C008
C008
C008
6018
6018
6010
3030
1FE0
ENDCHAR
STARTCHAR 00FD
ENCODING 253
SWIDTH 630 0
DWIDTH 14 0
BBX 15 23 0 0
BITMAP
0100
0280
0080
0080
0300
0000
0000
F01E
600C
7018
3010
1830
1C20
0C40
06C0
0380
0300
0300
0300
0300
0300
0300
07C0
ENDCHAR
STARTCHAR 00FE
ENCODING 254
SWIDTH 585 0
DWIDTH 13 0
BBX 12 20 1 0
BITMAP
1F80
1700
0000
0000
FFF0
6070
6010
6000
6000
6000
6040
7FC0
6040
6000
6000
6000
6000
6010
6070
FFF0
ENDCHAR
STARTCHAR 00FF
ENCODING 255
SWIDTH 630 0
DWIDTH 14 0
BBX 15 21 0 0
BITMAP
0C00
0600
0300
0080
0000
F01E
600C
7018
3010
1830
1C20
0C40
06C0
0380
0300
0300
0300
0300
0300
0300
07C0
ENDCHAR
STARTCHAR 0106
ENCODING 262
SWIDTH 675 0
DWIDTH 15 0
BBX 0 0 0 0
BITMAP
ENDCHAR
STARTCHAR 0107
ENCODING 263
SWIDTH 405 0
DWIDTH 9 0
BBX 0 0 0 0
BITMAP
ENDCHAR
STARTCHAR 010C
ENCODING 268
SWIDTH 675 0
DWIDTH 15 0
BBX 0 0 0 0
BITMAP
ENDCHAR
STARTCHAR 010D
ENCODING 269
SWIDTH 405 0
DWIDTH 9 0
BBX 0 0 0 0
BITMAP
ENDCHAR
STARTCHAR 0111
ENCODING 273
SWIDTH 540 0
DWIDTH 12 0
BBX 0 0 0 0
BITMAP
ENDCHAR
STARTCHAR 011E
ENCODING 286
SWIDTH 765 0
DWIDTH 17 0
BBX 0 0 0 0
BITMAP
ENDCHAR
STARTCHAR 011F
ENCODING 287
SWIDTH 495 0
DWIDTH 11 0
BBX 0 0 0 0
BITMAP
ENDCHAR
STARTCHAR 0130
ENCODING 304
SWIDTH 270 0
DWIDTH 6 0
BBX 0 0 0 0
BITMAP
ENDCHAR
STARTCHAR 0131
ENCODING 305
SWIDTH 225 0
DWIDTH 5 0
BBX 0 0 0 0
BITMAP
ENDCHAR
STARTCHAR 0141
ENCODING 321
SWIDTH 585 0
DWIDTH 13 0
BBX 0 0 0 0
BITMAP
ENDCHAR
STARTCHAR 0142
ENCODING 322
SWIDTH 225 0
DWIDTH 5 0
BBX 0 0 0 0
BITMAP
ENDCHAR
STARTCHAR 0152
ENCODING 338
SWIDTH 585 0
DWIDTH 13 0
BBX 12 25 1 -4
BITMAP
0600
0D00
0880
0000
0000
FFF0
6070
6010
6000
6000
6000
6040
7FC0
6040
6000
6000
6000
6000
6010
6070
FFF0
0000
0200
0600
0200
ENDCHAR
STARTCHAR 0153
ENCODING 339
SWIDTH 630 0
DWIDTH 14 0
BBX 15 20 0 -4
BITMAP
F01E
600C
7018
3010
1830
1C20
0C40
06C0
0380
0300
0300
0300
0300
0300
0300
07C0
0000
0100
0380
0100
ENDCHAR
STARTCHAR 015E
ENCODING 350
SWIDTH 540 0
DWIDTH 12 0
BBX 0 0 0 0
BITMAP
ENDCHAR
STARTCHAR 015F
ENCODING 351
SWIDTH 360 0
DWIDTH 8 0
BBX 0 0 0 0
BITMAP
ENDCHAR
STARTCHAR 0160
ENCODING 352
SWIDTH 585 0
DWIDTH 13 0
BBX 13 24 0 0
BITMAP
C000
6000
3000
0B00
0680
0440
0000
0000
7FF8
3038
3008
3000
3000
3000
3020
3FE0
3020
3000
3000
3000
3000
3008
3038
7FF8
ENDCHAR
STARTCHAR 0161
ENCODING 353
SWIDTH 630 0
DWIDTH 14 0
BBX 15 22 0 0
BITMAP
0040
00C0
0180
0300
0000
0000
F01E
600C
7018
3010
1830
1C20
0C40
06C0
0380
0300
0300
0300
0300
0300
0300
07C0
ENDCHAR
STARTCHAR 0178
ENCODING 376
SWIDTH 765 0
DWIDTH 17 0
BBX 15 24 1 0
BITMAP
0380
0240
0040
0180
011C
0002
0004
0008
0FF0
3838
301C
600C
E00E
C006
C006
C006
C006
C006
C006
E00E
600C
701C
3838
0FE0
ENDCHAR
STARTCHAR 017D
ENCODING 381
SWIDTH 540 0
DWIDTH 12 0
BBX 0 0 0 0
BITMAP
ENDCHAR
STARTCHAR 017E
ENCODING 382
SWIDTH 360 0
DWIDTH 8 0
BBX 0 0 0 0
BITMAP
ENDCHAR
STARTCHAR 0192
ENCODING 402
SWIDTH 630 0
DWIDTH 14 0
BBX 15 24 0 0
BITMAP
0006
000C
0018
03A0
0680
0440
0000
0000
0300
0380
0780
04C0
0CC0
0860
0860
1860
1030
3FF0
3038
2018
6018
6018
601C
F03E
ENDCHAR
STARTCHAR 02C6
ENCODING 710
SWIDTH 630 0
DWIDTH 14 0
BBX 15 20 0 0
BITMAP
0840
0780
0000
0000
0300
0380
0780
04C0
0CC0
0860
0860
1860
1030
3FF0
3038
2018
6018
6018
601C
F03E
ENDCHAR
STARTCHAR 02C7
ENCODING 711
SWIDTH 495 0
DWIDTH 11 0
BBX 0 0 0 0
BITMAP
ENDCHAR
STARTCHAR 02DA
ENCODING 730
SWIDTH 495 0
DWIDTH 11 0
BBX 0 0 0 0
BITMAP
ENDCHAR
STARTCHAR 02DB
ENCODING 731
SWIDTH 495 0
DWIDTH 11 0
BBX 0 0 0 0
BITMAP
ENDCHAR
STARTCHAR 02DC
ENCODING 732
SWIDTH 765 0
DWIDTH 17 0
BBX 15 25 1 0
BITMAP
0038
0028
0008
0018
03A0
0280
0440
0000
0000
0FE0
3838
301C
600C
E00E
C006
C006
C006
C006
C006
C006
E00E
600C
701C
3838
0FE0
ENDCHAR
STARTCHAR 03A9
ENCODING 937
SWIDTH 765 0
DWIDTH 17 0
BBX 0 0 0 0
BITMAP
ENDCHAR
STARTCHAR 03C0
ENCODING 960
SWIDTH 630 0
DWIDTH 14 0
BBX 0 0 0 0
BITMAP
ENDCHAR
STARTCHAR 2013
ENCODING 8211
SWIDTH 765 0
DWIDTH 17 0
BBX 15 24 1 0
BITMAP
0006
000C
0018
03A0
0280
0440
0000
0000
0FE0
3838
301C
600C
E00E
C006
C006
C006
C006
C006
C006
E00E
600C
701C
3838
0FE0
ENDCHAR
STARTCHAR 2014
ENCODING 8212
SWIDTH 765 0
DWIDTH 17 0
BBX 15 24 1 0
BITMAP
C000
6000
3000
0B80
0280
0440
0000
0000
0FE0
3838
301C
600C
E00E
C006
C006
C006
C006
C006
C006
E00E
600C
701C
3838
0FE0
ENDCHAR
STARTCHAR 2018
ENCODING 8216
SWIDTH 270 0
DWIDTH 6 0
BBX 3 5 2 11
BITMAP
40
80
80
E0
E0
ENDCHAR
STARTCHAR 2019
ENCODING 8217
SWIDTH 270 0
DWIDTH 6 0
BBX 3 5 1 11
BITMAP
E0
E0
20
20
40
ENDCHAR
STARTCHAR 201A
ENCODING 8218
SWIDTH 630 0
DWIDTH 14 0
BBX 15 20 0 1
BITMAP
07C0
0800
0000
0000
0300
0380
0780
04C0
0CC0
0860
0860
1860
1030
3FF0
3038
2018
6018
6018
601C
F03E
ENDCHAR
STARTCHAR 201C
ENCODING 8220
SWIDTH 585 0
DWIDTH 13 0
BBX 13 24 0 0
BITMAP
C000
6000
3000
0B00
0680
0440
0000
0000
7FF8
3038
3008
3000
3000
3000
3020
3FE0
3020
3000
3000
3000
3000
3008
3038
7FF8
ENDCHAR
STARTCHAR 201D
ENCODING 8221
SWIDTH 585 0
DWIDTH 13 0
BBX 12 25 1 0
BITMAP
00E0
0010
0010
0060
0640
0D00
0880
0000
0000
FFF0
6070
6010
6000
6000
6000
6040
7FC0
6040
6000
6000
6000
6000
6010
6070
FFF0
ENDCHAR
STARTCHAR 201E
ENCODING 8222
SWIDTH 630 0
DWIDTH 14 0
BBX 15 24 0 0
BITMAP
C000
6000
3000
0B80
0680
0440
0000
0000
0300
0380
0780
04C0
0CC0
0860
0860
1860
1030
3FF0
3038
2018
6018
6018
601C
F03E
ENDCHAR
STARTCHAR 2020
ENCODING 8224
SWIDTH 765 0
DWIDTH 17 0
BBX 15 20 1 -4
BITMAP
0FE0
3838
301C
600C
E00E
C006
C006
C006
C006
C006
C006
E00E
600C
701C
3838
0FE0
0000
0000
0380
0180
ENDCHAR
STARTCHAR 2021
ENCODING 8225
SWIDTH 765 0
DWIDTH 17 0
BBX 15 24 1 0
BITMAP
0740
05C0
0000
0380
0280
0440
0000
0000
0FE0
3838
301C
600C
E00E
C006
C006
C006
C006
C006
C006
E00E
600C
701C
3838
0FE0
ENDCHAR
STARTCHAR 2022
ENCODING 8226
SWIDTH 585 0
DWIDTH 13 0
BBX 12 24 1 0
BITMAP
0E80
1F80
0000
0600
0D00
0880
0000
0000
FFF0
6070
6010
6000
6000
6000
6040
7FC0
6040
6000
6000
6000
6000
6010
6070
FFF0
ENDCHAR
STARTCHAR 2026
ENCODING 8230
SWIDTH 630 0
DWIDTH 14 0
BBX 15 25 0 0
BITMAP
0070
0008
0010
0020
03A0
0680
0440
0000
0000
0300
0380
0780
04C0
0CC0
0860
0860
1860
1030
3FF0
3038
2018
6018
6018
601C
F03E
ENDCHAR
STARTCHAR 2030
ENCODING 8240
SWIDTH 585 0
DWIDTH 13 0
BBX 13 24 1 0
BITMAP
0018
0038
0060
0600
0D00
0880
0000
0000
FFF0
6070
6010
6000
6000
6000
6040
7FC0
6040
6000
6000
6000
6000
6010
6070
FFF0
ENDCHAR
STARTCHAR 2039
ENCODING 8249
SWIDTH 585 0
DWIDTH 13 0
BBX 12 25 1 0
BITMAP
00E0
0010
0010
0060
0640
0D00
0880
0000
0000
FFF0
6070
6010
6000
6000
6000
6040
7FC0
6040
6000
6000
6000
6000
6010
6070
FFF0
ENDCHAR
STARTCHAR 203A
ENCODING 8250
SWIDTH 630 0
DWIDTH 14 0
BBX 15 23 0 0
BITMAP
0100
0280
0080
0080
0300
0000
0000
F01E
600C
7018
3010
1830
1C20
0C40
06C0
0380
0300
0300
0300
0300
0300
0300
07C0
ENDCHAR
STARTCHAR 20A3
ENCODING 8355
SWIDTH 855 0
DWIDTH 19 0
BBX 0 0 0 0
BITMAP
ENDCHAR
STARTCHAR 2122
ENCODING 8482
SWIDTH 765 0
DWIDTH 17 0
BBX 15 24 1 0
BITMAP
0740
05C0
0000
0380
0280
0440
0000
0000
0FE0
3838
301C
600C
E00E
C006
C006
C006
C006
C006
C006
E00E
600C
701C
3838
0FE0
ENDCHAR
STARTCHAR 2202
ENCODING 8706
SWIDTH 495 0
DWIDTH 11 0
BBX 0 0 0 0
BITMAP
ENDCHAR
STARTCHAR 2206
ENCODING 8710
SWIDTH 585 0
DWIDTH 13 0
BBX 0 0 0 0
BITMAP
ENDCHAR
STARTCHAR 220F
ENCODING 8719
SWIDTH 765 0
DWIDTH 17 0
BBX 0 0 0 0
BITMAP
ENDCHAR
STARTCHAR 2211
ENCODING 8721
SWIDTH 675 0
DWIDTH 15 0
BBX 0 0 0 0
BITMAP
ENDCHAR
STARTCHAR 2212
ENCODING 8722
SWIDTH 810 0
DWIDTH 18 0
BBX 0 0 0 0
BITMAP
ENDCHAR
STARTCHAR 2215
ENCODING 8725
SWIDTH 135 0
DWIDTH 3 0
BBX 0 0 0 0
BITMAP
ENDCHAR
STARTCHAR 2219
ENCODING 8729
SWIDTH 270 0
DWIDTH 6 0
BBX 4 23 1 0
BITMAP
60
50
10
20
40
00
00
F0
60
60
60
60
60
60
60
60
60
60
60
60
60
60
F0
ENDCHAR
STARTCHAR 221A
ENCODING 8730
SWIDTH 585 0
DWIDTH 13 0
BBX 0 0 0 0
BITMAP
ENDCHAR
STARTCHAR 221E
ENCODING 8734
SWIDTH 810 0
DWIDTH 18 0
BBX 0 0 0 0
BITMAP
ENDCHAR
STARTCHAR 222B
ENCODING 8747
SWIDTH 495 0
DWIDTH 11 0
BBX 0 0 0 0
BITMAP
ENDCHAR
STARTCHAR 2248
ENCODING 8776
SWIDTH 810 0
DWIDTH 18 0
BBX 0 0 0 0
BITMAP
ENDCHAR
STARTCHAR 2260
ENCODING 8800
SWIDTH 810 0
DWIDTH 18 0
BBX 0 0 0 0
BITMAP
ENDCHAR
STARTCHAR 2264
ENCODING 8804
SWIDTH 810 0
DWIDTH 18 0
BBX 0 0 0 0
BITMAP
ENDCHAR
STARTCHAR 2265
ENCODING 8805
SWIDTH 810 0
DWIDTH 18 0
BBX 0 0 0 0
BITMAP
ENDCHAR
STARTCHAR 25CA
ENCODING 9674
SWIDTH 450 0
DWIDTH 10 0
BBX 0 0 0 0
BITMAP
ENDCHAR
STARTCHAR F000
ENCODING 61440
SWIDTH 765 0
DWIDTH 17 0
BBX 0 0 0 0
BITMAP
ENDCHAR
STARTCHAR F001
ENCODING 61441
SWIDTH 495 0
DWIDTH 11 0
BBX 0 0 0 0
BITMAP
ENDCHAR
STARTCHAR F002
ENCODING 61442
SWIDTH 495 0
DWIDTH 11 0
BBX 0 0 0 0
BITMAP
ENDCHAR
ENDFONT
